<?xml version="1.0" standalone="no"?>
<!DOCTYPE svg PUBLIC "-//W3C//DTD SVG 20010904//EN"
 "http://www.w3.org/TR/2001/REC-SVG-20010904/DTD/svg10.dtd">
<svg version="1.0" xmlns="http://www.w3.org/2000/svg"
 width="1024.000000pt" height="530.000000pt" viewBox="0 0 1024.000000 530.000000"
 preserveAspectRatio="xMidYMid meet">
<metadata>
Created by potrace 1.16, written by Peter Selinger 2001-2019
</metadata>
<g transform="translate(0.000000,530.000000) scale(0.100000,-0.100000)"
fill="#000000" stroke="none">
<path d="M0 4662 c0 -618 1 -638 19 -649 11 -7 21 -23 23 -35 2 -14 9 -22 18
-19 8 2 22 4 30 4 8 0 21 8 28 19 17 23 34 23 62 0 17 -13 21 -24 16 -40 -4
-12 -14 -22 -21 -22 -8 0 -19 -9 -25 -19 -6 -13 -25 -22 -54 -26 -32 -5 -46
-12 -49 -26 -3 -11 -14 -19 -26 -19 l-21 0 0 -765 0 -765 23 0 c12 1 47 11 77
24 54 24 79 23 96 -5 13 -21 16 -196 4 -240 -7 -24 -13 -65 -14 -92 -2 -28
-11 -59 -22 -74 -22 -30 -87 -68 -132 -78 l-32 -7 0 -688 0 -689 513 -3 c281
-2 604 -1 717 2 113 3 491 2 840 -2 349 -4 1007 -6 1461 -5 687 2 829 4 843
16 14 11 16 32 15 120 -1 58 4 140 11 181 7 41 12 89 11 105 -1 17 -2 46 -3
67 -4 66 42 89 87 43 29 -28 32 -70 10 -103 -14 -20 -14 -29 6 -109 12 -49 25
-135 28 -193 l6 -105 50 -12 c35 -8 277 -12 820 -13 424 0 833 -5 910 -10 340
-23 818 -31 2095 -36 751 -2 1385 -8 1409 -12 25 -4 88 -4 140 -1 53 4 136 7
184 8 l88 1 -2 267 -1 267 -27 33 c-14 18 -34 33 -44 33 -10 0 -31 7 -47 15
-20 10 -30 12 -30 4 0 -15 -70 -2 -89 16 -23 23 -16 67 15 92 25 20 74 28 74
13 0 -4 -14 -21 -31 -38 -17 -18 -27 -32 -21 -32 6 0 17 -3 25 -6 11 -4 17 4
22 28 10 46 19 54 77 74 42 13 52 14 59 3 4 -7 12 -10 16 -5 4 5 2 11 -4 13
-15 5 -17 33 -3 33 7 0 10 479 9 1418 0 1100 -3 1413 -12 1398 -27 -42 -70
-86 -86 -86 -9 0 -27 7 -39 16 -15 10 -22 11 -22 3 0 -9 -4 -9 -15 1 -8 6 -18
9 -24 6 -17 -11 -41 6 -41 30 0 17 -6 24 -18 24 -28 0 -34 11 -15 32 16 18 16
20 -5 40 -20 20 -22 21 -40 5 -28 -26 -77 -21 -112 11 -26 22 -31 35 -32 73 0
26 3 52 6 58 5 7 -9 19 -36 31 -24 10 -53 29 -64 42 -31 34 -83 158 -84 199
-1 22 -47 50 -88 53 l-37 2 0 98 c0 93 1 99 27 124 25 25 39 65 20 60 -40 -11
-102 84 -86 131 13 37 50 53 84 36 38 -20 55 -57 42 -93 l-10 -30 59 -6 c88
-10 121 -43 127 -125 4 -49 1 -66 -13 -81 -11 -13 -15 -26 -9 -42 14 -46 59
-60 187 -60 39 1 119 -6 176 -14 58 -8 118 -14 134 -14 l29 0 -4 380 -3 380
-587 0 -587 0 -7 -22 c-4 -13 -7 -35 -5 -50 4 -43 -43 -119 -117 -188 -88 -82
-117 -106 -136 -113 -8 -3 -18 -23 -22 -44 -9 -50 -37 -112 -63 -142 -16 -19
-18 -27 -10 -44 10 -17 15 -116 10 -182 -2 -29 10 -88 21 -102 6 -7 5 -19 -1
-32 -6 -11 -11 -26 -11 -35 0 -18 40 -32 49 -17 4 5 23 17 43 25 20 9 39 20
43 26 3 5 15 10 25 10 10 0 23 6 27 14 4 7 26 23 48 34 22 11 52 34 67 52 26
31 26 31 57 15 38 -19 71 -69 71 -106 0 -20 7 -30 30 -39 62 -26 95 -100 45
-100 -15 0 -25 -6 -25 -15 0 -9 6 -12 15 -9 20 8 19 -10 0 -26 -11 -9 -40 -11
-106 -7 -59 4 -99 2 -116 -6 -22 -10 -28 -8 -43 11 -10 12 -26 22 -37 22 -23
1 -46 18 -61 47 -10 18 -18 20 -54 16 -26 -3 -48 -13 -57 -24 -17 -24 -42 -24
-84 -2 -18 10 -51 18 -75 19 -36 1 -50 8 -87 45 -25 24 -52 59 -60 77 -19 39
-36 162 -35 257 0 39 0 109 0 156 0 76 2 90 26 124 24 36 25 43 15 72 -7 18
-9 38 -5 45 5 7 8 63 9 125 l0 113 -184 0 c-171 0 -183 -1 -176 -17 15 -35 16
-60 8 -203 -5 -80 -5 -174 0 -209 8 -65 -11 -292 -34 -396 -12 -52 -35 -106
-50 -116 -5 -3 -14 -43 -19 -90 -12 -96 -37 -189 -51 -189 -5 0 -13 -8 -16
-17 -16 -41 -79 -103 -105 -103 -12 0 -23 -10 -29 -29 -7 -21 -22 -33 -54 -46
-28 -10 -51 -28 -62 -46 -20 -33 -56 -39 -85 -13 -16 16 -18 15 -24 -2 -4 -11
-17 -41 -28 -69 -19 -43 -20 -59 -13 -111 7 -53 6 -68 -13 -108 -16 -37 -26
-46 -45 -46 -21 0 -31 11 -60 71 -40 83 -58 100 -94 89 -15 -5 -50 -11 -80
-15 -30 -3 -62 -10 -71 -15 -18 -10 -30 -49 -35 -115 -4 -57 -42 -199 -55
-203 -5 -2 -10 -12 -10 -22 0 -10 -15 -30 -32 -44 -18 -15 -44 -36 -56 -46
-48 -40 -93 -20 -112 50 -6 21 -15 40 -22 42 -6 2 -13 24 -15 49 -4 45 -39
129 -77 184 -12 17 -28 43 -36 59 -8 16 -24 33 -36 38 -18 9 -20 15 -13 51 4
23 7 42 6 43 -1 0 -25 8 -54 17 -98 32 -137 14 -94 -43 26 -36 26 -47 0 -74
-36 -37 -99 -125 -99 -138 0 -7 7 -22 15 -32 16 -21 19 -56 9 -93 -7 -25 -52
-44 -86 -35 -12 3 -70 53 -128 111 -58 58 -118 114 -133 124 -16 11 -32 30
-37 43 -5 13 -14 24 -19 24 -13 0 -2 63 12 72 20 13 53 9 98 -11 l44 -20 22
21 c16 15 23 33 23 59 0 21 5 41 10 44 6 3 10 23 10 44 0 34 -4 41 -35 55 -19
9 -37 21 -40 26 -3 6 -13 10 -22 10 -8 0 -26 9 -40 20 -26 20 -56 21 -118 2
-17 -5 -45 -8 -62 -7 -34 3 -103 40 -103 56 0 16 -34 9 -76 -15 -63 -36 -94
-39 -121 -10 -15 16 -33 24 -56 24 -68 0 -94 -51 -56 -114 28 -47 19 -87 -27
-118 -35 -24 -43 -42 -21 -51 7 -3 19 -23 26 -45 12 -36 12 -44 -3 -66 -31
-48 -109 -47 -127 1 -9 23 -5 34 25 77 33 47 34 52 18 63 -9 7 -27 22 -38 33
-13 13 -31 20 -45 18 -23 -3 -24 -6 -21 -64 3 -43 -1 -71 -13 -93 -9 -18 -16
-55 -17 -82 0 -47 -24 -93 -63 -121 -20 -15 -53 -7 -79 18 -24 25 -26 33 -26
113 0 47 4 101 9 119 10 32 13 133 8 197 -5 50 -15 62 -47 57 -23 -3 -30 0
-30 12 0 9 7 19 15 22 17 7 20 24 5 24 -11 0 -15 3 -109 88 -35 31 -84 70
-110 86 -57 36 -65 47 -86 114 -24 74 -13 98 86 208 10 12 19 27 19 34 0 14
54 61 89 77 14 7 43 12 63 13 20 0 40 5 44 11 4 7 6 46 5 88 -2 83 4 111 24
111 18 0 23 31 31 205 3 82 12 170 20 194 13 45 9 59 -21 62 -5 0 -62 5 -125
11 -72 7 -472 11 -1075 12 l-960 1 0 -73 c0 -66 -2 -75 -25 -93 -14 -10 -37
-18 -51 -17 -49 5 -78 -44 -43 -73 13 -10 17 -10 23 0 5 7 17 11 27 9 18 -5
18 -5 -1 -13 -28 -12 -67 -54 -60 -66 4 -5 21 -9 38 -9 73 -2 134 -56 144
-128 7 -49 -12 -83 -59 -112 l-30 -18 38 -18 c22 -10 45 -25 52 -34 11 -13 13
-13 23 4 31 52 64 76 109 80 53 4 85 -13 105 -58 8 -17 24 -43 36 -58 16 -19
21 -38 20 -70 -1 -24 -2 -85 -3 -136 0 -84 -2 -94 -22 -107 -22 -15 -165 -37
-223 -36 -24 1 -37 -6 -52 -28 -12 -16 -21 -33 -21 -38 0 -6 -36 -40 -80 -77
-44 -38 -80 -72 -80 -77 0 -9 -13 -15 -108 -55 -34 -14 -34 -15 -28 -67 13
-118 12 -148 -2 -156 -8 -5 -14 -20 -14 -34 -1 -28 -31 -47 -77 -47 -24 0 -32
-7 -45 -37 -38 -87 -39 -88 -81 -87 -43 2 -55 -8 -55 -46 0 -16 -13 -37 -35
-58 -47 -42 -108 -45 -153 -7 -38 32 -44 31 -65 -5 -39 -65 -119 -76 -171 -23
-49 49 -43 107 16 144 27 16 44 19 96 16 61 -5 62 -4 62 22 0 34 34 89 64 102
29 14 89 4 106 -16 7 -8 18 -15 25 -15 26 0 36 68 41 290 6 224 5 225 -18 253
-23 28 -24 28 -166 32 -86 3 -150 10 -162 17 -31 19 -44 52 -31 76 13 25 57
38 161 46 83 7 126 27 115 54 -4 9 -8 24 -9 32 0 8 -5 18 -9 21 -19 14 -61
487 -62 689 l0 105 -1117 3 -1118 2 0 -638z m3765 536 c5 -7 -1 -4 -12 7 -12
12 -18 28 -15 40 5 17 6 17 13 -7 4 -14 10 -32 14 -40z m-2038 26 c37 -7 38
-10 24 -40 -9 -21 -9 -30 1 -41 11 -14 9 -15 -19 -9 -31 7 -31 7 -30 -33 1
-29 5 -41 15 -41 14 0 14 -21 0 -80 -2 -10 6 -16 25 -18 25 -3 27 -7 27 -48 0
-24 -5 -44 -10 -44 -19 0 -71 -58 -76 -85 -6 -32 7 -50 54 -72 46 -22 68 -61
82 -145 10 -59 10 -72 -4 -93 -22 -34 -53 -51 -104 -59 -35 -5 -49 -2 -75 16
-18 12 -38 31 -46 42 -12 16 -16 17 -25 4 -14 -20 -123 -51 -150 -44 -25 7
-52 62 -65 130 -5 27 -5 96 0 159 19 253 19 240 -4 265 -11 12 -25 22 -29 22
-20 0 -38 31 -38 65 0 103 119 140 179 56 21 -29 25 -51 19 -110 -2 -19 3 -26
26 -32 15 -4 37 -16 47 -25 19 -17 21 -17 46 8 30 31 41 109 17 129 -15 13
-19 39 -5 39 4 0 8 17 7 38 -1 30 2 36 17 34 9 -2 20 4 23 13 4 10 13 13 25
10 10 -4 31 -9 46 -11z m2081 -85 c25 -14 38 -27 35 -36 -3 -7 -1 -19 5 -26
27 -34 33 -157 9 -203 -21 -40 -76 -67 -121 -59 -32 6 -34 10 -46 64 l-12 58
-44 -16 c-54 -20 -75 -9 -88 43 -8 29 -6 40 6 52 14 14 20 14 63 0 26 -9 50
-14 53 -11 3 3 8 33 10 68 2 34 9 68 14 75 16 19 72 14 116 -9z m788 -161 c0
-26 7 -54 14 -63 8 -10 14 -46 14 -96 1 -66 -2 -83 -17 -94 -15 -11 -16 -13
-2 -19 11 -4 15 -19 14 -53 0 -26 -3 -41 -6 -33 -3 8 -13 23 -21 33 -9 10 -16
30 -17 44 0 18 -6 27 -20 29 -49 7 -61 88 -20 144 20 27 24 43 21 84 -4 62 1
78 23 74 12 -3 16 -15 17 -50z m-3576 -38 c26 -26 26 -80 0 -108 -27 -29 -87
-45 -114 -30 -12 6 -80 14 -153 16 -151 5 -158 9 -118 75 l24 42 118 11 c190
18 220 17 243 -6z m3210 -23 c34 -17 81 -87 89 -134 12 -63 -3 -171 -29 -205
-14 -19 -18 -33 -12 -37 7 -4 5 -20 -5 -46 -8 -22 -17 -53 -20 -70 -3 -16 -13
-40 -21 -53 -11 -17 -13 -37 -8 -82 9 -79 -8 -114 -81 -165 -81 -57 -103 -83
-103 -120 0 -23 -7 -37 -23 -48 -22 -14 -26 -13 -53 8 -16 12 -42 25 -59 29
-23 5 -38 21 -65 68 -19 34 -34 65 -32 70 3 11 -38 47 -54 48 -21 0 -53 59
-60 111 -4 30 -15 73 -25 96 -11 23 -19 58 -19 77 0 42 -5 44 -36 15 -22 -20
-27 -21 -71 -10 -144 36 -169 51 -187 108 -10 31 35 73 79 73 17 0 56 5 86 10
44 8 64 7 99 -5 42 -15 44 -14 76 10 39 30 54 26 102 -30 43 -48 85 -187 80
-264 -2 -46 1 -62 19 -84 11 -15 30 -27 41 -27 17 0 19 6 16 50 -2 27 -10 63
-19 80 -10 20 -12 30 -4 30 7 0 8 7 4 18 -8 20 -10 26 -30 109 -16 65 -15 68
20 193 8 30 15 69 15 87 0 17 6 36 14 40 7 4 15 15 18 23 9 31 209 52 258 27z
m-3270 -167 c-13 -9 -13 -10 1 -10 26 0 53 -25 43 -41 -4 -8 -9 -29 -10 -47
-1 -25 5 -38 23 -49 27 -18 29 -35 7 -54 -11 -9 -15 -24 -11 -50 3 -25 0 -42
-10 -52 -20 -19 -28 -89 -15 -125 12 -35 -4 -102 -30 -128 -14 -14 -17 -14
-34 0 -11 8 -30 24 -44 35 -22 17 -26 29 -31 103 -4 67 -2 96 15 148 11 36 24
68 29 71 5 4 7 22 5 40 -4 22 1 47 12 69 11 21 16 48 13 68 -5 30 -3 32 23 32
23 0 26 -2 14 -10z m3524 -461 c21 -25 26 -41 26 -86 0 -67 -18 -133 -37 -133
-7 0 -13 -6 -13 -14 0 -20 -21 -25 -66 -17 -57 11 -62 16 -70 66 -3 25 -11 45
-16 45 -7 0 -7 4 -1 13 6 6 13 28 17 47 7 40 44 98 66 104 44 11 69 5 94 -25z
m-2603 -79 c28 -27 49 -58 49 -69 0 -35 -39 -201 -55 -231 -22 -42 -100 -74
-130 -52 -6 4 -28 31 -49 60 -38 53 -38 54 -32 121 6 55 4 70 -9 81 -8 7 -15
16 -15 20 0 4 25 32 55 61 47 46 61 54 96 56 37 1 47 -4 90 -47z m6831 -7 c38
-41 48 -66 48 -118 0 -60 -28 -102 -75 -111 -31 -5 -40 -1 -90 42 -83 73 -92
126 -32 192 16 17 31 22 72 22 43 0 55 -4 77 -27z m328 -59 c0 -2 -7 -4 -15
-4 -8 0 -15 4 -15 10 0 5 7 7 15 4 8 -4 15 -8 15 -10z m-7842 -121 c-2 -14 3
-17 27 -15 26 2 28 0 14 -10 -9 -7 -16 -17 -15 -23 1 -5 -9 -11 -21 -13 -13
-2 -23 -10 -23 -18 0 -7 -11 -16 -24 -20 -15 -3 -26 -14 -28 -27 -4 -30 -40
-33 -76 -7 -27 20 -29 27 -27 72 3 56 14 68 63 68 22 0 32 -5 32 -15 0 -8 4
-15 9 -15 5 0 11 -9 14 -20 8 -30 29 -24 26 8 -3 29 6 52 22 52 5 0 9 -8 7
-17z m8612 -47 c0 -18 -7 -25 -27 -28 -16 -3 -37 -8 -48 -13 -14 -5 -16 -4 -6
3 9 6 10 12 2 16 -21 13 12 46 46 46 28 0 33 -4 33 -24z m-6727 -15 c33 -33
25 -104 -15 -134 -32 -24 -80 -16 -98 17 -18 34 -16 90 4 121 16 24 23 27 54
21 20 -3 45 -14 55 -25z m2487 -41 c0 -5 -5 -10 -11 -10 -5 0 -7 5 -4 10 3 6
8 10 11 10 2 0 4 -4 4 -10z m4114 -16 c13 -15 22 -33 19 -40 -3 -8 2 -17 11
-20 30 -12 45 -59 52 -170 7 -122 -8 -252 -31 -270 -8 -6 -15 -15 -15 -20 0
-10 -97 -54 -117 -54 -7 0 -23 11 -36 24 -22 22 -22 24 -6 34 24 16 22 149 -4
163 -9 6 -17 19 -17 29 0 10 -5 22 -11 26 -6 3 -9 21 -7 39 3 24 0 31 -9 28
-17 -7 -17 18 0 50 19 37 79 100 109 116 29 15 27 37 -3 46 -24 8 -25 32 -1
38 34 9 41 7 66 -19z m-5213 -17 c6 -23 4 -28 -18 -33 -29 -8 -49 8 -37 28 5
7 9 16 10 21 1 4 2 10 3 13 3 17 36 -5 42 -29z m-663 -40 c2 -18 -4 -34 -20
-49 -25 -25 -26 -29 -37 -177 -7 -91 -5 -111 22 -168 14 -31 1 -71 -36 -104
-40 -38 -69 -45 -118 -30 -44 13 -62 38 -55 78 2 16 5 31 5 35 1 5 17 26 37
48 24 27 34 45 30 58 -11 35 13 211 35 255 35 70 65 95 102 88 25 -5 33 -12
35 -34z m1106 33 c42 -15 35 -60 -13 -102 -22 -18 -43 -45 -46 -60 -6 -23 -3
-29 19 -39 30 -14 66 -70 66 -102 0 -21 -47 -97 -60 -97 -4 0 -18 -22 -32 -48
-34 -66 -32 -125 8 -177 28 -38 29 -41 26 -143 -1 -58 -7 -113 -12 -123 -13
-23 -13 -115 0 -139 17 -32 12 -164 -9 -230 -8 -25 -8 -55 -1 -107 6 -39 10
-111 9 -160 -1 -48 2 -106 6 -127 8 -42 -7 -123 -36 -193 -11 -26 -16 -55 -12
-76 7 -43 -15 -62 -69 -60 -50 2 -79 30 -76 72 2 33 -11 53 -66 93 -44 32 -70
35 -114 12 -70 -34 -160 0 -164 63 -3 52 -7 228 -6 263 2 38 1 94 -2 154 0 22
-7 64 -15 93 -18 70 -21 479 -3 501 9 10 9 18 0 33 -21 34 -43 146 -36 189 6
39 8 40 45 40 25 0 39 -5 39 -13 0 -7 11 -29 25 -49 26 -39 92 -67 118 -51 11
7 24 9 102 16 45 3 57 14 44 39 -8 15 -8 27 0 45 9 20 9 30 -4 49 -19 29 -30
30 -47 5 -20 -28 -66 -31 -92 -6 -14 14 -17 14 -36 -5 -24 -24 -91 -28 -110
-5 -7 8 -15 13 -19 11 -3 -2 -14 1 -23 8 -16 12 -16 14 7 26 14 7 25 19 25 26
0 31 87 134 113 134 7 0 30 -9 51 -21 34 -18 44 -19 87 -9 32 8 53 20 61 34 6
11 19 27 29 34 13 9 17 21 13 40 -5 28 21 56 130 141 43 35 44 35 80 21z
m-3717 -74 c37 -19 133 -117 139 -142 5 -19 1 -91 -7 -141 -3 -15 -19 -6 -19
10 0 7 -16 13 -36 15 -89 6 -203 143 -187 224 9 49 21 60 57 52 17 -3 41 -12
53 -18z m4780 8 c7 -18 -33 -64 -55 -64 -9 0 -12 3 -9 6 3 4 0 16 -8 27 -11
15 -12 24 -3 34 15 18 67 17 75 -3z m-5528 -108 c18 -19 22 -31 17 -53 -11
-42 -64 -93 -98 -93 -40 0 -78 40 -78 82 0 41 6 50 50 71 49 23 83 21 109 -7z
m1020 -208 c22 0 79 -47 82 -67 5 -42 3 -64 -8 -68 -7 -3 -13 -10 -13 -15 0
-6 -13 -27 -30 -48 -16 -21 -30 -44 -30 -51 -1 -19 -125 -149 -143 -149 -28 0
-44 33 -42 90 1 39 -3 58 -13 66 -13 9 -11 13 9 27 13 10 31 17 41 17 10 0 18
7 18 15 0 8 -5 15 -11 15 -8 0 -10 12 -6 35 3 19 1 37 -4 41 -15 9 -1 55 24
82 18 18 29 21 62 16 22 -3 51 -6 64 -6z m397 -3 c-3 -9 0 -18 8 -21 7 -3 22
-21 32 -40 10 -19 22 -34 26 -34 5 0 8 -22 8 -49 0 -43 -4 -52 -35 -80 -20
-17 -40 -31 -45 -31 -5 0 -12 -10 -16 -22 -4 -13 -16 -30 -27 -38 -37 -27
-112 -69 -124 -70 -7 0 -24 19 -39 41 -23 37 -25 48 -20 104 5 58 4 64 -18 78
-46 31 -38 129 14 157 49 26 150 1 150 -36 0 -9 6 -14 13 -11 6 2 11 10 9 17
-1 6 7 14 18 17 11 3 20 12 20 19 0 8 7 14 16 14 10 0 14 -5 10 -15z m737 -40
c20 -14 37 -32 37 -39 0 -7 7 -26 15 -43 8 -17 18 -57 21 -90 6 -58 6 -62 -21
-79 -16 -10 -42 -17 -62 -16 -21 2 -48 -6 -69 -19 -66 -40 -136 -1 -149 85 -3
21 -8 42 -11 47 -7 12 28 84 58 122 23 27 84 56 123 57 11 0 37 -11 58 -25z
m5819 -15 c22 0 36 -29 18 -40 -10 -6 -10 -12 0 -31 7 -13 19 -28 26 -32 16
-9 19 -97 4 -97 -20 0 -50 -35 -50 -60 0 -14 -5 -31 -11 -37 -8 -8 -8 -17 0
-31 18 -34 13 -97 -9 -117 -11 -10 -22 -26 -26 -37 -4 -15 -9 -17 -17 -9 -6 6
-19 11 -28 11 -32 0 -54 103 -31 145 27 52 -27 114 -89 101 -21 -4 -36 1 -57
19 -16 13 -32 22 -35 18 -4 -3 -18 2 -32 11 -21 14 -24 20 -14 32 6 8 17 14
23 14 7 0 22 18 35 40 23 41 39 48 69 29 15 -9 28 -5 74 25 31 20 60 41 64 47
4 6 19 9 36 5 17 -3 39 -6 50 -6z m-7353 -42 c5 -13 5 -24 0 -26 -13 -5 -59
29 -53 39 10 18 45 9 53 -13z m16 -99 c98 -93 117 -172 107 -459 -7 -200 -7
-224 5 -605 8 -251 7 -284 -8 -320 -18 -44 -48 -75 -94 -99 -28 -15 -28 -16
-7 -16 38 0 92 -61 92 -102 0 -53 -34 -79 -113 -85 -57 -4 -67 -2 -92 19 -16
14 -29 37 -31 56 -3 30 1 35 51 67 62 40 75 55 45 55 -30 0 -91 27 -106 48
-21 25 -54 102 -54 122 0 11 -10 20 -29 23 -30 6 -159 -1 -173 -9 -5 -3 -23
-1 -41 5 -31 10 -32 13 -29 56 l4 45 84 0 c55 0 84 4 84 11 0 6 6 9 14 6 10
-4 12 0 9 14 -4 14 0 19 13 20 12 0 6 5 -14 13 -19 6 -38 19 -43 29 -6 9 -24
24 -40 33 -28 14 -30 17 -15 33 12 13 13 20 4 29 -18 18 -36 15 -48 -8 -12
-23 -60 -50 -89 -50 -23 0 -56 53 -47 76 3 8 0 17 -8 20 -9 3 -13 22 -12 55 1
40 4 49 19 49 10 0 15 -5 12 -10 -13 -21 27 -22 49 -1 12 11 30 21 39 21 9 0
19 5 22 10 3 6 14 10 24 10 10 0 24 7 31 15 7 8 26 15 42 15 16 0 31 -6 34
-15 9 -22 21 -19 64 18 66 54 49 99 -45 119 -105 23 -145 28 -168 19 -20 -8
-28 -5 -46 15 -11 13 -21 29 -21 34 0 6 -8 10 -19 10 -40 0 -54 198 -16 240 8
9 15 28 15 41 0 13 4 39 9 56 6 19 6 35 1 38 -5 3 -5 16 1 29 12 25 48 46 80
46 31 0 117 47 134 74 9 13 37 31 63 41 26 10 70 32 97 50 44 29 68 40 98 44
5 0 33 -22 62 -50z m8662 -14 c52 -22 71 -42 84 -88 13 -49 -2 -128 -31 -157
-25 -25 -26 -75 -2 -92 11 -7 24 -24 31 -37 12 -21 10 -26 -18 -55 -17 -18
-31 -36 -31 -41 0 -5 -14 -24 -31 -41 -31 -32 -31 -32 -10 -46 11 -7 21 -21
21 -31 0 -19 -66 -64 -88 -59 -26 6 -45 -16 -48 -56 -4 -47 12 -62 64 -62 21
0 38 -9 56 -31 42 -49 33 -97 -30 -164 -26 -28 -38 -50 -39 -75 -1 -19 -3 -41
-4 -48 0 -7 -13 -17 -28 -23 -34 -13 -184 -12 -220 2 -22 8 -25 14 -19 41 3
17 14 40 22 50 16 16 15 20 -10 52 -14 19 -35 38 -47 41 -24 8 -40 44 -32 74
3 13 31 35 70 57 51 29 65 42 70 65 3 16 10 32 14 35 5 3 9 13 9 24 0 19 -19
30 -53 30 -11 0 -29 8 -39 17 -18 16 -18 17 8 45 25 25 26 29 12 45 -8 10 -28
46 -43 80 l-27 62 21 34 c11 19 21 44 21 55 0 13 10 24 31 31 27 9 31 14 26
38 -4 19 3 45 19 78 13 28 24 58 24 67 0 19 56 78 74 78 6 0 22 -7 34 -16 22
-15 24 -14 47 10 28 30 42 32 92 11z m-283 -11 c22 -8 20 -31 -3 -43 -10 -6
-24 -24 -29 -41 -8 -21 -16 -28 -26 -24 -20 8 -20 47 -1 84 15 30 29 35 59 24z
m-5740 -38 c10 -37 32 -97 51 -138 12 -25 19 -50 15 -55 -12 -13 -30 -171 -30
-261 0 -78 2 -87 31 -127 28 -38 31 -49 25 -86 -6 -40 -25 -69 -44 -69 -17 0
-19 -21 -6 -86 7 -40 8 -79 3 -106 -11 -59 -11 -90 1 -83 6 3 10 -3 10 -15 0
-12 -4 -18 -10 -15 -13 8 -13 -8 0 -21 8 -8 0 -90 -27 -259 -2 -16 0 -50 6
-74 5 -25 7 -50 3 -55 -3 -6 -7 -25 -9 -43 -2 -18 -8 -45 -13 -58 -8 -22 -14
-24 -37 -19 -65 16 -73 53 -76 364 -1 185 4 219 37 243 8 5 6 11 -6 20 -14 11
-16 24 -11 70 3 32 2 57 -3 57 -5 0 -11 11 -12 24 -1 13 -17 39 -37 59 -42 42
-45 77 -11 128 24 35 24 40 25 245 0 147 5 224 15 261 8 28 12 54 10 56 -3 2
8 18 24 35 22 23 35 29 51 25 13 -3 24 -11 25 -17z m2800 -43 c3 -27 8 -78 11
-116 6 -61 9 -69 35 -82 16 -8 41 -16 55 -17 32 -3 38 -24 39 -128 1 -63 -4
-83 -26 -125 -15 -27 -38 -62 -52 -77 -14 -15 -26 -36 -26 -47 0 -32 23 -121
31 -121 14 0 59 -85 59 -111 0 -35 -41 -107 -65 -113 -24 -6 -77 28 -98 64
-23 39 -29 93 -14 115 20 28 18 235 -2 259 -8 9 -20 15 -27 12 -14 -5 -25 39
-12 52 14 14 27 71 17 77 -5 4 -9 1 -9 -6 0 -9 -3 -10 -11 -2 -29 29 -12 344
20 373 20 17 53 39 63 39 3 1 9 -20 12 -46z m-4467 -118 c-1 -26 -7 -35 -20
-35 -14 0 -16 4 -7 19 5 11 7 27 4 35 -4 11 -1 16 10 16 12 0 15 -8 13 -35z
m7383 27 c0 -5 -11 -19 -25 -32 -28 -27 -36 -8 -8 22 17 19 33 24 33 10z
m-6950 -57 c0 -10 -10 -15 -30 -15 -16 0 -30 4 -30 9 0 8 10 12 53 20 4 0 7
-6 7 -14z m124 -54 c17 -11 60 -25 96 -31 98 -18 140 -46 154 -102 8 -34 -20
-312 -34 -339 -9 -16 -8 -31 6 -68 15 -43 15 -50 1 -78 -31 -58 -144 -88 -246
-63 -44 10 -52 16 -63 46 -13 38 -37 45 -45 14 -3 -11 -14 -20 -24 -20 -12 0
-19 7 -19 20 0 11 -6 20 -14 20 -8 0 -16 6 -19 14 -7 16 39 31 87 27 15 -1 57
12 92 29 35 16 78 30 94 30 36 0 37 2 5 34 -14 14 -25 32 -25 41 0 8 -7 15
-15 15 -19 0 -34 30 -33 67 1 16 -2 35 -6 41 -3 6 6 19 20 29 45 33 17 72 -52
73 -19 0 -82 60 -85 81 -1 5 -2 13 -3 18 0 5 -4 12 -7 16 -7 6 20 65 41 90 17
21 57 19 94 -4z m3686 -123 l9 -23 0 25 c1 17 4 21 12 13 14 -14 7 -49 -9 -45
-7 1 -12 -6 -12 -17 0 -10 -7 -24 -15 -31 -21 -18 -65 12 -65 44 0 42 11 56
41 56 21 0 32 -6 39 -22z m2105 -28 c23 -9 25 -14 19 -44 -4 -24 -1 -42 10
-58 9 -12 16 -34 16 -49 0 -14 8 -37 19 -50 18 -24 17 -48 -2 -60 -5 -4 -4
-15 3 -29 10 -18 10 -31 0 -61 -7 -20 -10 -49 -6 -63 16 -66 -119 -79 -203
-19 -2 1 2 9 9 18 11 13 10 19 -5 35 -9 10 -14 23 -11 28 3 5 -8 21 -24 35
-16 15 -36 40 -45 57 -15 30 -15 30 12 41 85 33 106 61 59 79 -29 11 -34 31
-11 50 18 15 20 47 3 52 -22 8 16 36 53 41 63 7 78 7 104 -3z m-2595 -35 c7
-8 19 -15 28 -15 8 0 23 -6 31 -14 14 -12 55 -20 226 -42 22 -3 50 -10 62 -16
17 -9 29 -6 58 11 20 11 41 21 48 21 6 0 29 -19 50 -42 l38 -43 -3 -81 c-3
-71 -7 -87 -36 -134 -39 -62 -38 -95 4 -151 25 -33 25 -36 19 -159 -3 -69 -10
-145 -15 -170 -5 -26 -4 -52 1 -62 9 -17 5 -163 -7 -201 -3 -12 -12 -29 -19
-37 -8 -8 -14 -19 -14 -25 1 -26 -21 -11 -40 27 -27 57 -43 317 -31 508 8 126
8 136 -11 156 -10 11 -19 26 -19 32 0 15 -13 15 -27 1 -15 -15 -45 -4 -61 22
-12 18 -11 24 0 36 12 12 19 12 44 -2 16 -8 36 -15 44 -14 10 0 11 2 3 6 -7 2
-13 11 -13 19 0 25 -55 94 -80 100 -14 4 -43 16 -65 27 -64 32 -94 38 -208 43
-88 4 -113 2 -132 -10 -14 -9 -42 -16 -63 -16 -21 0 -42 -4 -47 -8 -12 -11
-95 -44 -115 -46 -8 -1 -25 -7 -38 -14 -38 -21 -62 8 -62 72 0 65 22 101 52
85 16 -9 24 -7 43 11 20 19 26 20 45 8 18 -11 23 -11 35 6 16 21 60 46 81 46
8 0 26 -7 39 -16 33 -22 55 -12 55 26 0 55 68 93 100 55z m1881 -10 c62 -33
85 -115 57 -207 -12 -42 -58 -88 -88 -88 -31 0 -35 -22 -9 -44 49 -43 69 -77
69 -121 0 -23 7 -61 15 -84 8 -23 12 -47 9 -54 -6 -16 51 -97 69 -97 16 0 47
-36 47 -54 0 -8 -6 -16 -12 -19 -9 -3 -7 -9 6 -20 19 -14 19 -15 -2 -26 -18
-9 -22 -20 -20 -46 2 -29 -5 -43 -37 -77 -22 -23 -48 -48 -57 -56 -12 -9 -18
-27 -18 -55 0 -42 -23 -91 -62 -134 -19 -20 -19 -23 -4 -38 9 -9 16 -22 16
-28 0 -36 -24 -87 -55 -117 -19 -19 -35 -39 -35 -45 0 -14 -68 -47 -81 -40 -5
4 -9 23 -9 43 0 31 -5 40 -30 54 -17 10 -33 25 -36 35 -3 10 -10 26 -15 35
-12 23 -12 55 1 63 6 3 -3 28 -21 60 -27 49 -30 60 -28 135 2 58 -1 84 -10 89
-11 7 -10 14 3 34 24 36 12 76 -29 93 -31 13 -85 66 -85 84 0 5 5 21 12 35 10
23 10 28 -4 36 -26 14 -10 47 37 74 60 36 72 53 77 112 6 68 41 114 113 148
31 14 53 30 50 35 -3 5 6 27 20 49 15 26 25 55 25 79 0 43 17 102 30 102 4 0
10 13 13 29 4 16 14 31 24 34 10 3 19 5 21 6 2 0 16 -6 33 -14z m-6145 -272
c-10 -10 -19 5 -10 18 6 11 8 11 12 0 2 -7 1 -15 -2 -18z m14 -48 c0 -14 -4
-25 -10 -25 -5 0 -10 11 -10 25 0 14 5 25 10 25 6 0 10 -11 10 -25z m4325 -78
c42 -3 95 -34 95 -56 0 -13 -12 -22 -45 -31 -24 -7 -51 -10 -60 -6 -9 3 -24 1
-34 -6 -21 -13 -100 -3 -125 15 -14 10 -16 21 -11 49 7 35 10 37 49 41 22 2
55 2 71 0 17 -2 44 -5 60 -6z m-3756 -152 c17 0 43 -44 60 -105 7 -25 19 -55
27 -68 19 -29 24 -129 9 -159 -16 -30 -44 -52 -67 -53 -30 0 -70 43 -74 81 -1
18 -10 67 -18 107 -20 93 -21 161 -2 168 8 3 20 20 27 37 10 28 12 30 18 12 3
-11 12 -20 20 -20z m6271 -39 c-6 -8 -18 -12 -26 -9 -23 9 -16 23 12 23 22 0
24 -2 14 -14z m-2 -38 c7 -7 12 -23 12 -37 1 -34 18 -64 53 -91 44 -34 58 -71
48 -122 -14 -71 -26 -92 -86 -146 l-57 -52 -38 33 c-29 27 -54 38 -116 51
-135 29 -189 55 -179 87 3 9 2 20 -3 23 -15 9 -13 92 1 105 8 6 48 13 90 16
42 3 101 12 133 20 66 17 84 35 88 88 1 11 25 36 37 37 3 0 10 -5 17 -12z
m-1782 -52 c3 -11 13 -29 22 -39 11 -13 17 -54 23 -160 9 -160 5 -195 -27
-252 -23 -42 -62 -60 -96 -43 -13 6 -18 5 -18 -7 0 -10 9 -15 28 -15 15 0 38
-7 50 -16 20 -14 22 -23 19 -73 -3 -62 -21 -95 -86 -163 -38 -41 -55 -46 -88
-23 -32 23 -51 127 -32 188 9 33 21 48 48 63 33 18 36 23 34 59 -2 22 -11 51
-21 65 -22 29 -33 78 -21 86 5 3 9 19 9 36 0 18 5 46 12 64 9 25 9 39 1 57 -9
19 -8 37 4 78 27 96 120 159 139 95z m2935 -2 c34 -1 65 -6 70 -11 10 -10 15
-358 6 -405 -3 -15 -14 -40 -25 -55 -13 -19 -21 -51 -24 -100 -5 -72 -20 -103
-51 -103 -17 0 -27 47 -16 76 3 11 1 22 -5 26 -8 5 -7 11 2 20 23 23 14 66
-18 90 -17 12 -28 28 -25 36 6 16 -24 64 -36 56 -16 -9 -10 29 8 48 16 18 16
22 -1 66 -10 26 -20 87 -23 138 -5 88 -5 91 22 118 22 22 30 25 41 15 8 -7 42
-13 75 -15z m-3841 -40 c58 -2 128 -7 155 -12 28 -4 61 -5 75 -1 48 13 157 10
170 -6 13 -16 5 -55 -13 -55 -7 0 -40 -3 -75 -5 -39 -3 -71 0 -82 8 -15 9 -22
9 -31 0 -7 -7 -24 -9 -40 -6 -18 3 -29 1 -29 -6 0 -7 -24 -11 -69 -11 -52 0
-74 5 -93 19 -13 11 -40 22 -60 26 -46 9 -80 41 -58 56 8 5 22 6 30 3 8 -4 62
-8 120 -10z m-3005 -24 c10 -11 27 -20 37 -20 25 0 67 -27 100 -64 22 -24 30
-28 37 -17 11 17 91 17 102 0 4 -6 10 -40 14 -75 3 -35 10 -62 13 -61 8 2 12
-7 12 -24 0 -5 -4 -8 -9 -4 -6 3 -15 -4 -21 -16 -10 -18 -19 -20 -68 -17 -62
3 -67 -1 -93 -89 -7 -25 -19 -43 -30 -46 -11 -3 -19 -13 -19 -22 0 -12 -6 -15
-19 -10 -11 3 -22 1 -26 -5 -3 -5 2 -10 13 -10 30 0 33 -11 10 -31 -22 -20
-83 -25 -107 -10 -7 5 -15 23 -17 41 -2 19 -5 34 -6 34 -69 29 -102 51 -121
83 -16 28 -23 33 -25 20 -4 -21 -21 -22 -28 -2 -4 8 -14 15 -24 15 -11 0 -22
5 -25 10 -5 8 -11 8 -19 1 -9 -7 -19 -6 -33 4 -12 8 -28 12 -37 9 -21 -8 -21
14 1 38 19 21 39 23 46 6 3 -9 7 -7 12 5 9 21 -1 50 -15 42 -5 -3 -19 -1 -31
5 -21 12 -21 12 6 40 15 16 31 28 34 27 11 -3 47 27 54 46 3 9 19 22 34 28 49
20 117 50 138 61 21 12 63 26 81 27 6 1 19 -8 29 -19z m1264 -57 c-16 -60 -17
-61 -18 -10 -1 34 3 47 13 47 12 0 13 -7 5 -37z m-1609 -66 c0 -5 -4 -5 -10
-2 -5 3 -10 14 -10 23 0 15 2 15 10 2 5 -8 10 -19 10 -23z m4917 -23 c13 -33
-35 -70 -59 -46 -6 6 -8 22 -4 36 5 19 13 26 32 26 14 0 27 -7 31 -16z m-3327
-19 c0 -26 -14 -33 -25 -15 -9 14 1 40 15 40 5 0 10 -11 10 -25z m1843 2 c26
-2 48 1 50 7 2 6 29 10 60 10 62 -1 97 -21 97 -55 0 -22 -35 -43 -60 -36 -10
2 -24 1 -31 -3 -7 -5 -26 -2 -43 7 -21 11 -44 14 -85 9 -71 -8 -64 -8 -146 -1
-90 8 -97 10 -93 37 3 20 9 23 58 25 30 0 69 5 85 11 17 5 37 5 46 1 9 -5 37
-10 62 -12z m285 -34 c3 -19 -1 -23 -21 -23 -26 0 -38 15 -29 38 8 22 47 10
50 -15z m-5663 -22 c3 -5 1 -12 -5 -16 -5 -3 -10 1 -10 9 0 18 6 21 15 7z
m4391 -123 c-5 -90 2 -106 32 -76 9 9 12 8 12 -4 0 -9 3 -24 7 -33 5 -14 2
-16 -15 -11 -20 7 -21 4 -18 -53 1 -34 6 -64 9 -68 4 -3 7 -26 7 -49 0 -48
-18 -67 -76 -77 -35 -7 -50 5 -78 61 -9 17 -24 32 -32 32 -13 0 -15 -8 -10
-43 5 -37 3 -47 -16 -65 -25 -23 -125 -72 -147 -72 -24 0 -111 73 -111 93 0
13 -5 17 -15 13 -8 -3 -15 -2 -16 2 0 4 -2 16 -4 26 -4 21 18 60 28 50 7 -7
37 20 37 34 0 5 9 12 21 15 15 4 20 12 17 28 -2 18 -14 26 -47 36 -24 7 -49
18 -57 24 -11 9 -14 7 -14 -10 0 -11 -6 -21 -13 -21 -8 0 -11 13 -9 44 2 27
-2 55 -12 75 -16 30 -16 34 3 76 11 26 27 45 35 45 9 0 16 4 16 9 0 20 33 41
62 41 16 0 41 -9 55 -20 14 -11 41 -20 59 -20 23 0 37 -6 44 -20 15 -27 2 -70
-25 -82 -22 -10 -33 -58 -14 -58 5 0 4 -11 -1 -26 -9 -23 -7 -26 21 -36 19 -7
28 -15 25 -24 -3 -9 2 -14 15 -14 11 0 22 -7 26 -15 3 -9 23 -24 44 -34 33
-16 40 -17 50 -5 9 11 9 20 -1 38 -10 19 -10 31 0 62 14 40 18 169 7 181 -11
11 -8 50 6 61 24 19 52 18 75 -2 23 -20 24 -26 18 -108z m5189 106 c9 -10 16
-33 15 -58 0 -22 3 -67 6 -99 8 -81 -1 -127 -27 -127 -10 0 -29 -6 -40 -12
-18 -11 -23 -10 -41 12 -18 22 -20 34 -15 92 5 54 11 73 34 98 20 23 33 30 50
25 16 -4 23 -1 23 9 0 28 -76 26 -83 -2 -3 -10 -5 -6 -6 10 -1 28 32 68 55 68
7 0 20 -7 29 -16z m-8401 -67 c13 -21 -14 -53 -38 -44 -13 5 -13 12 -5 37 12
33 26 35 43 7z m264 -13 c25 -29 29 -54 7 -54 -10 0 -15 10 -15 30 0 34 -10
38 -33 12 -13 -14 -14 -21 -5 -30 21 -21 -6 -38 -38 -24 -23 11 -26 10 -31 -7
-6 -24 -28 -34 -41 -18 -6 7 -12 26 -15 44 -12 75 115 110 171 47z m4107 -20
c0 -21 -31 -30 -71 -20 -28 7 -30 22 -8 47 14 16 20 17 48 5 20 -8 31 -20 31
-32z m174 19 c20 -18 20 -18 1 -42 -15 -17 -24 -21 -33 -13 -6 6 -27 14 -45
19 -36 9 -43 29 -9 27 12 -1 26 5 30 12 11 19 31 18 56 -3z m3955 -42 c-5 -13
-8 -11 -15 8 -6 14 -7 32 -3 40 5 13 8 11 15 -8 6 -14 7 -32 3 -40z m-4559 29
c3 -5 1 -10 -4 -10 -6 0 -11 5 -11 10 0 6 2 10 4 10 3 0 8 -4 11 -10z m-352
-70 c-2 -54 -6 -67 -25 -82 -13 -10 -27 -16 -32 -15 -18 6 -28 59 -21 113 l7
55 36 -3 37 -3 -2 -65z m-1173 -10 c16 -30 15 -109 -1 -125 -8 -7 -26 -15 -41
-19 -32 -7 -68 21 -68 54 0 33 28 78 57 93 38 20 41 20 53 -3z m6085 10 c3 -5
-1 -10 -9 -10 -9 0 -16 5 -16 10 0 6 4 10 9 10 6 0 13 -4 16 -10z m-6375 -36
c0 -8 -5 -12 -10 -9 -6 4 -8 11 -5 16 9 14 15 11 15 -7z m2312 -34 c17 0 28
-3 24 -7 -4 -5 -17 -8 -28 -8 -12 0 -23 -6 -25 -12 -3 -8 4 -13 16 -13 25 0
38 -19 20 -31 -28 -18 -82 -21 -140 -9 -32 7 -59 16 -59 20 0 5 27 11 60 15
33 4 60 11 60 17 0 5 -10 8 -22 6 -15 -2 -24 3 -26 14 -4 20 31 28 66 16 13
-4 37 -8 54 -8z m-274 1 c11 -6 10 -10 -5 -16 -32 -13 -67 -14 -82 -2 -12 10
-7 13 25 18 21 3 41 7 44 7 3 1 11 -2 18 -7z m412 -21 c0 -9 5 -21 12 -28 17
-17 5 -24 -39 -26 -34 -1 -38 1 -36 22 2 13 -4 25 -12 28 -31 12 -13 25 30 22
33 -2 45 -7 45 -18z m100 16 c0 -16 -14 -36 -26 -36 -16 0 -16 2 -8 24 5 14
34 24 34 12z m-532 -42 c36 -10 25 -21 -28 -28 -51 -7 -100 0 -100 14 0 15 87
25 128 14z m-2249 -51 c-2 -80 -27 -115 -50 -71 -25 46 -6 108 32 108 15 0 19
-7 18 -37z m231 27 c18 -10 19 -22 11 -106 -2 -17 -57 -37 -75 -27 -16 9 -16
9 -16 53 0 39 -9 37 -42 -6 -25 -34 -27 -34 -37 -15 -12 22 1 71 19 71 5 0 10
8 10 18 1 16 1 16 11 0 13 -24 25 -23 32 2 6 22 54 28 87 10z m2554 -66 c21
-8 21 -58 0 -79 -10 -10 -29 -15 -48 -13 -40 4 -48 39 -15 74 23 25 36 28 63
18z m-5184 -13 c0 -6 -4 -13 -10 -16 -5 -3 -10 1 -10 9 0 9 5 16 10 16 6 0 10
-4 10 -9z m8953 -38 c8 -7 -11 -33 -24 -33 -5 0 -9 9 -9 20 0 19 20 27 33 13z
m-2865 -82 c2 -6 8 -11 14 -11 16 0 37 -32 37 -55 1 -11 -8 -31 -18 -45 -16
-20 -31 -25 -92 -31 -81 -7 -120 4 -155 43 -12 12 -29 28 -39 34 -22 12 -12
34 15 34 11 0 24 9 30 19 6 13 24 21 48 24 58 7 156 0 160 -12z m491 -6 c66
-6 100 -18 114 -41 4 -8 17 -14 27 -14 21 0 24 -10 14 -47 -4 -16 -14 -23 -29
-23 -13 0 -25 -3 -27 -7 -2 -5 -21 -18 -43 -29 -22 -12 -42 -30 -44 -40 -4
-20 -21 -36 -63 -59 -22 -12 -36 -13 -82 -3 -52 10 -56 13 -62 45 -3 18 -2 46
4 61 6 15 14 51 18 81 8 66 33 94 79 86 17 -3 59 -7 94 -10z m-825 -10 c-4 -8
-10 -15 -15 -15 -4 0 -6 7 -3 15 4 8 10 15 15 15 4 0 6 -7 3 -15z m41 -5 c3
-5 2 -10 -4 -10 -5 0 -13 5 -16 10 -3 6 -2 10 4 10 5 0 13 -4 16 -10z m2895
-10 c0 -5 -6 -10 -14 -10 -9 0 -14 -9 -13 -20 1 -11 6 -20 11 -20 5 0 6 -3 3
-7 -4 -3 -2 -12 4 -19 29 -35 -32 -62 -65 -28 -37 37 -7 114 45 114 16 0 29
-4 29 -10z m-6518 -30 c49 -32 63 -53 51 -75 -15 -24 -155 -135 -171 -135 -45
1 -52 50 -21 140 25 74 40 90 90 99 3 1 26 -13 51 -29z m418 -20 c0 -10 -9
-24 -19 -30 -24 -12 -51 -39 -51 -49 0 -17 66 -43 100 -39 30 3 37 8 46 37 13
39 39 53 98 52 28 0 46 -7 67 -27 16 -15 29 -34 29 -41 0 -29 -35 -92 -55 -97
-36 -10 -85 -6 -115 9 -28 14 -29 14 -35 -14 -11 -52 -62 -85 -147 -96 -62 -9
-81 9 -82 74 -1 46 3 56 27 77 16 13 26 28 23 33 -3 5 -3 30 1 56 5 41 10 49
37 61 46 20 76 18 76 -6z m2689 -51 c55 -55 56 -56 40 -111 -11 -42 -21 -45
-67 -22 -40 19 -45 29 -32 51 18 28 -3 73 -29 66 -16 -4 -21 -1 -21 13 0 29
20 49 51 53 4 1 30 -22 58 -50z m-1169 19 c21 -23 27 -74 9 -80 -7 -2 -4 -16
9 -38 18 -31 27 -76 23 -120 -1 -11 -6 -10 -19 6 -10 12 -28 26 -40 33 -18 10
-21 20 -21 67 1 43 -4 60 -20 78 -27 28 -26 41 1 60 29 21 33 20 58 -6z m4387
5 c21 -10 43 -25 50 -33 15 -18 17 -70 3 -70 -5 0 -10 7 -10 15 0 25 -17 17
-28 -14 -9 -26 -8 -28 10 -23 15 3 19 1 16 -9 -2 -8 -21 -18 -41 -23 -30 -8
-46 -5 -87 14 -87 41 -98 71 -49 133 27 33 78 36 136 10z m-781 -21 c-9 -9
-37 8 -31 18 5 8 11 7 21 -1 8 -6 12 -14 10 -17z m-5356 2 c0 -14 -3 -14 -15
-4 -8 7 -15 14 -15 16 0 2 7 4 15 4 8 0 15 -7 15 -16z m2433 -21 c4 -3 2 -12
-3 -18 -7 -8 -7 -21 -1 -38 6 -14 7 -41 4 -60 -4 -29 -2 -37 17 -47 12 -6 29
-9 37 -5 14 5 14 7 -3 20 -18 14 -18 14 4 15 13 0 32 5 44 11 27 15 68 3 68
-19 0 -13 -14 -23 -47 -33 -26 -8 -48 -19 -50 -24 -2 -6 19 -16 47 -22 27 -7
63 -22 80 -35 29 -21 31 -27 26 -62 -9 -51 -12 -55 -53 -72 -30 -13 -36 -13
-56 1 -12 8 -26 31 -32 52 -14 48 -48 71 -119 77 -57 6 -80 19 -72 41 2 6 13
9 25 7 17 -1 22 3 19 15 -3 17 -29 33 -109 66 -27 11 -38 24 -48 55 -8 22 -10
45 -7 51 4 7 39 11 86 11 43 0 82 5 85 10 7 11 48 14 58 3z m-473 -38 c-7 -8
-16 -15 -21 -15 -13 0 -11 24 3 38 18 18 35 -3 18 -23z m-5060 21 c0 -2 -7 -7
-16 -10 -8 -3 -12 -2 -9 4 6 10 25 14 25 6z m76 -4 c5 -4 16 -22 23 -40 16
-38 5 -57 -35 -65 -35 -6 -42 18 -15 47 24 25 27 52 9 59 -7 3 -8 6 -3 6 6 0
15 -3 21 -7z m5024 -12 c0 -5 -2 -10 -4 -10 -3 0 -8 5 -11 10 -3 6 -1 10 4 10
6 0 11 -4 11 -10z m-2727 -63 c4 -10 -3 -12 -24 -9 -16 2 -26 8 -23 13 8 14
41 11 47 -4z m2741 -25 c2 -4 0 -14 -5 -22 -8 -13 -10 -13 -18 0 -10 15 -6 30
9 30 5 0 11 -4 14 -8z m1715 -18 c3 -4 -5 -4 -19 -1 -14 4 -33 7 -43 7 -10 0
-16 4 -12 9 5 10 62 -2 74 -15z m2325 -30 c9 -3 16 -17 16 -29 0 -13 5 -27 11
-31 18 -11 -35 -52 -72 -56 -59 -5 -85 49 -49 102 9 13 13 11 30 -10 19 -24
20 -24 20 -3 0 12 6 24 13 26 6 3 13 6 14 6 1 1 8 -2 17 -5z m95 -76 c4 -12 6
-30 4 -39 -4 -14 -8 -13 -30 7 -15 14 -23 30 -19 39 8 22 35 18 45 -7z m-3336
3 c34 -13 42 -53 21 -110 -15 -42 -46 -71 -75 -71 -11 0 -50 127 -43 143 3 9
20 22 37 31 38 19 31 18 60 7z m-3035 -58 c14 -29 13 -105 -2 -148 l-14 -39
-16 38 c-19 46 -22 152 -3 159 21 9 26 8 35 -10z m869 -140 c-3 -10 -5 -4 -5
12 0 17 2 24 5 18 2 -7 2 -21 0 -30z m-2543 -25 c23 -33 20 -53 -14 -86 -16
-16 -26 -33 -22 -37 10 -12 -19 6 -40 24 -25 21 -23 70 4 98 27 29 52 29 72 1z
m-77 -130 c-3 -8 -6 -5 -6 6 -1 11 2 17 5 13 3 -3 4 -12 1 -19z"/>
<path d="M1295 5069 c14 -45 45 -67 45 -31 0 9 -12 25 -26 36 l-26 19 7 -24z"/>
<path d="M4568 3124 c-16 -9 -28 -18 -28 -23 0 -4 -9 -17 -20 -29 -15 -15 -20
-36 -21 -75 -1 -30 2 -60 5 -66 13 -20 16 -55 10 -94 -4 -28 -11 -38 -30 -43
-20 -5 -24 -13 -24 -41 0 -25 5 -36 18 -39 9 -3 27 -21 40 -40 12 -18 28 -34
36 -34 22 0 66 40 66 60 0 9 6 33 14 51 12 29 12 40 0 74 -16 48 -18 135 -3
168 7 15 8 44 2 82 -9 66 -19 73 -65 49z"/>
<path d="M4535 2590 c-8 -14 5 -80 17 -80 5 0 0 -10 -12 -22 -26 -28 -26 -69
0 -86 25 -15 73 -5 66 14 -3 8 -1 14 4 14 18 0 10 50 -10 70 -13 13 -20 33
-20 60 0 33 -3 40 -19 40 -11 0 -23 -4 -26 -10z"/>
<path d="M4540 2280 c0 -11 7 -20 15 -20 8 0 15 9 15 20 0 11 -7 20 -15 20 -8
0 -15 -9 -15 -20z"/>
<path d="M711 3094 c-6 -15 -10 -29 -7 -32 3 -2 -1 -17 -9 -31 -11 -21 -11
-37 -3 -72 6 -24 10 -84 9 -134 -1 -90 12 -155 30 -155 6 0 8 -4 4 -9 -12 -21
13 -18 39 4 15 13 52 31 83 41 65 20 81 47 63 104 -6 19 -15 62 -20 95 -23
145 -32 166 -73 158 -16 -3 -34 5 -56 26 -40 38 -45 38 -60 5z"/>
<path d="M2072 2140 c0 -14 2 -19 5 -12 2 6 2 18 0 25 -3 6 -5 1 -5 -13z"/>
<path d="M9498 1693 c7 -3 16 -2 19 1 4 3 -2 6 -13 5 -11 0 -14 -3 -6 -6z"/>
<path d="M9410 945 c0 -8 7 -15 15 -15 8 0 15 7 15 15 0 8 -7 15 -15 15 -8 0
-15 -7 -15 -15z"/>
<path d="M5368 5288 c-5 -15 14 -632 21 -677 1 -2 7 2 15 9 12 9 17 7 28 -9
14 -23 38 -28 38 -8 1 7 7 4 15 -7 14 -18 15 -18 24 8 6 14 8 46 4 71 -4 31
-2 45 6 45 6 0 11 -9 11 -20 0 -11 7 -23 15 -26 11 -5 12 -11 5 -25 -8 -14 -6
-27 6 -50 10 -20 14 -45 11 -68 -9 -64 -27 -135 -35 -140 -21 -14 -21 -61 0
-144 14 -58 27 -91 39 -98 10 -5 76 -13 146 -17 114 -8 133 -6 178 10 28 11
70 19 95 17 69 -3 70 -2 70 37 0 31 -38 218 -59 284 -4 14 -8 66 -9 115 -3 83
0 94 28 148 35 69 36 77 10 125 -10 20 -22 53 -25 72 -3 19 -16 47 -30 62 -21
23 -35 27 -109 33 -62 5 -108 3 -168 -9 -46 -8 -103 -17 -128 -18 -38 -3 -45
-6 -48 -25 -4 -24 -26 -31 -38 -12 -4 7 -6 83 -5 170 l1 159 -54 0 c-34 0 -55
-5 -58 -12z"/>
<path d="M7260 5202 c0 -53 -6 -127 -14 -164 -15 -73 -5 -138 21 -138 7 0 13
-5 13 -11 0 -10 43 -8 120 5 48 9 75 9 96 3 15 -5 27 0 45 19 23 25 24 30 26
205 l2 179 -154 0 -155 0 0 -98z"/>
<path d="M6779 4913 c-19 -49 -7 -143 25 -190 l29 -43 56 6 c80 9 98 30 84 98
-15 71 -80 141 -140 151 -40 6 -43 5 -54 -22z"/>
<path d="M7145 4755 c-63 -20 -70 -25 -67 -46 4 -26 57 -125 73 -135 5 -3 26
-38 45 -77 32 -62 36 -78 31 -122 -3 -27 -14 -70 -25 -95 -33 -75 -51 -460
-22 -484 18 -14 129 -20 149 -8 9 6 15 39 18 98 4 85 27 184 42 184 3 0 5 17
3 39 -3 25 1 43 11 52 12 12 11 15 -5 29 -25 20 -34 88 -19 142 10 36 9 54 -4
108 -33 129 -34 152 -14 197 10 23 19 48 19 56 0 21 -38 56 -68 63 -15 3 -40
10 -56 15 -35 11 -26 12 -111 -16z"/>
<path d="M9522 4720 c0 -14 2 -19 5 -12 2 6 2 18 0 25 -3 6 -5 1 -5 -13z"/>
<path d="M2623 4723 c-24 -2 -43 -9 -43 -14 0 -19 34 -60 61 -75 17 -8 36 -32
47 -58 11 -24 24 -46 29 -49 13 -8 82 58 108 103 11 19 29 39 40 45 53 27 51
29 -25 41 -74 12 -135 14 -217 7z"/>
<path d="M6380 4686 c-14 -8 -34 -20 -45 -25 -15 -7 -16 -10 -4 -10 9 -1 21
-11 26 -24 7 -14 25 -27 49 -34 38 -11 254 -18 254 -8 0 2 -11 24 -24 47 -27
48 -39 53 -153 62 -60 5 -84 3 -103 -8z"/>
<path d="M5296 4351 c-16 -17 -16 -19 0 -25 10 -4 24 -1 31 7 12 12 12 15 0
25 -11 9 -18 8 -31 -7z"/>
<path d="M4998 4331 c-16 -16 -28 -38 -28 -48 0 -22 44 -68 57 -60 17 11 55
95 51 113 -6 32 -49 29 -80 -5z"/>
<path d="M6425 4262 c-16 -10 -43 -22 -60 -26 -49 -11 -83 -27 -88 -40 -3 -7
-8 -38 -12 -68 -6 -50 -5 -58 16 -79 13 -13 23 -27 22 -31 -2 -4 9 -10 25 -13
15 -3 53 -15 86 -25 32 -11 61 -18 65 -15 4 2 39 9 76 15 38 6 76 16 84 23 50
42 49 162 -1 209 -25 24 -136 68 -170 68 -7 0 -26 -8 -43 -18z"/>
<path d="M7444 4156 c-8 -22 0 -81 11 -81 6 0 11 21 13 48 3 45 -12 65 -24 33z"/>
<path d="M5296 3985 c-9 -9 -16 -25 -16 -35 0 -10 -8 -21 -17 -24 -13 -5 -10
-11 18 -26 81 -47 79 -47 105 -15 30 37 30 38 -3 74 -36 38 -66 47 -87 26z"/>
<path d="M5180 3931 c0 -22 21 -33 40 -21 11 7 11 11 1 24 -18 22 -41 20 -41
-3z"/>
<path d="M1690 420 c0 -4 7 -11 16 -14 24 -9 112 -7 118 3 3 5 16 7 29 5 21
-4 21 -4 1 5 -24 11 -164 12 -164 1z"/>
<path d="M5934 326 c-15 -12 -17 -17 -6 -28 15 -15 152 -21 152 -7 0 16 -64
49 -96 49 -16 0 -39 -6 -50 -14z"/>
<path d="M585 289 c-60 -4 -217 -5 -347 -2 l-238 6 0 -147 0 -146 1406 0 c934
0 1403 3 1399 10 -3 5 -3 10 2 10 4 0 25 4 45 9 26 6 36 6 31 -2 -4 -7 2 -8
18 -2 13 4 51 11 84 15 l60 7 -70 3 c-46 2 -57 5 -32 7 20 2 37 8 37 14 0 5 7
9 15 9 8 0 15 -5 15 -11 0 -8 4 -9 13 0 8 6 17 8 21 4 4 -4 9 3 13 15 6 23 21
26 63 11 25 -9 25 -9 -2 -5 -17 2 -28 -2 -28 -9 0 -8 22 -10 81 -7 60 3 80 2
75 -7 -5 -7 -42 -11 -102 -11 -62 0 -94 -4 -94 -11 0 -7 10 -9 24 -5 14 3 28
2 31 -4 3 -5 -3 -10 -14 -10 -11 0 -23 -5 -26 -11 -5 -7 13 -8 57 -3 70 7 88
14 39 14 -20 0 -30 4 -25 11 7 13 56 3 66 -14 8 -13 258 -15 279 -1 7 4 32 9
54 11 30 2 35 0 20 -7 -19 -8 -19 -9 2 -9 12 -1 23 5 25 12 3 9 51 14 174 17
l169 6 -162 2 c-89 1 -164 6 -167 10 -3 4 41 7 97 7 56 -1 124 0 150 3 47 5
48 5 27 24 -25 24 -26 38 -1 38 11 0 23 5 27 11 7 12 73 8 149 -9 28 -6 35
-11 24 -16 -9 -4 -20 -6 -25 -5 -22 4 -34 -2 -34 -16 0 -11 -11 -15 -36 -15
-68 0 -23 -20 49 -22 l72 -2 -75 -6 -75 -6 108 -2 c70 -1 106 2 102 8 -4 6 24
10 77 10 46 0 90 5 98 11 11 8 0 9 -41 5 -44 -5 -58 -3 -62 8 -3 8 -19 17 -36
21 -29 6 -44 25 -20 25 5 0 7 5 4 10 -4 6 8 10 27 11 37 1 151 8 185 12 12 1
25 5 29 10 11 11 96 9 89 -3 -8 -12 -3 -13 29 -1 17 7 27 6 35 -3 6 -7 8 -16
4 -19 -6 -7 43 -11 80 -8 12 2 17 -5 17 -23 0 -13 6 -27 13 -29 6 -3 -2 -3
-19 0 -30 5 -65 -19 -50 -34 4 -4 11 -1 16 7 7 10 10 11 10 2 0 -9 48 -12 213
-10 116 1 188 4 160 6 -29 1 -53 8 -53 14 0 6 -12 8 -30 5 -16 -4 -32 -2 -35
3 -4 6 -18 7 -32 4 -20 -5 -24 -4 -18 6 6 10 2 11 -18 6 -16 -4 -27 -1 -30 7
-4 9 -8 8 -16 -3 -10 -13 -13 -13 -21 2 -6 9 -17 15 -25 12 -8 -4 -12 -10 -9
-15 3 -5 -2 -9 -10 -9 -10 0 -16 9 -16 23 0 20 8 25 58 35 32 7 77 12 100 12
42 0 65 -15 35 -23 -10 -3 -4 -5 13 -6 17 0 34 2 38 6 4 5 20 8 34 9 96 4 244
3 282 -1 92 -9 281 -16 500 -20 338 -5 341 -5 305 -16 -16 -5 -60 -9 -98 -10
-54 -1 -69 -5 -77 -19 -6 -10 -20 -21 -32 -23 -13 -2 11 -5 52 -7 41 -1 98 -5
125 -10 l50 -7 -40 -3 c-23 -2 -2 -6 50 -10 51 -3 93 -2 96 3 4 5 16 4 28 -3
18 -9 27 -8 48 5 24 16 27 16 35 1 6 -10 18 -14 31 -12 69 14 99 17 93 7 -4
-5 10 -14 31 -20 25 -7 658 -11 1910 -11 l1873 0 0 146 0 147 -267 -7 c-147
-4 -275 -12 -285 -17 -10 -5 -26 -5 -41 0 -14 6 -29 6 -38 0 -8 -5 -32 -8 -54
-7 -23 1 -45 -1 -51 -5 -6 -3 -32 -4 -60 -1 -27 3 -94 6 -149 7 -90 2 -100 0
-97 -16 4 -22 0 -22 -29 4 -22 19 -32 20 -99 14 -41 -4 -118 -8 -170 -11 -52
-2 -133 -6 -180 -9 -47 -2 -251 -7 -454 -10 -203 -3 -376 -10 -385 -14 -8 -5
-25 -4 -39 2 -17 8 -28 8 -42 -1 -12 -7 -21 -8 -25 -2 -8 14 -171 13 -197 -1
-21 -11 -71 -15 -226 -18 -59 0 -91 -5 -87 -11 3 -6 -5 -10 -19 -10 -13 0 -26
6 -29 12 -3 10 -9 10 -28 1 -38 -19 -226 -22 -214 -4 7 13 -33 18 -72 10 -22
-5 -33 -3 -37 7 -4 10 -33 13 -123 13 -65 -1 -135 2 -155 6 -29 6 -44 3 -65
-11 -35 -23 -200 -27 -225 -6 -9 7 -40 17 -69 22 -30 5 -65 12 -79 15 -14 3
-49 7 -79 10 -46 3 -52 2 -49 -13 4 -14 -4 -17 -46 -19 -36 -1 -45 1 -31 7 17
8 16 9 -9 9 -20 1 -27 -3 -23 -13 4 -10 0 -12 -14 -9 -10 3 -19 9 -19 14 0 5
-7 9 -15 9 -17 0 -21 -16 -5 -22 5 -1 -40 -4 -102 -5 -71 -2 -116 1 -125 8
-32 27 -1032 36 -1041 10 -3 -8 -9 -8 -23 0 -11 6 -48 9 -82 8 -84 -2 -188 10
-205 23 -20 17 -172 24 -182 8 -12 -19 -201 -20 -224 -1 -12 10 -51 15 -134
17 -109 2 -743 7 -1002 7 -669 2 -1102 1 -1180 -2 -52 -2 -268 -1 -480 2 -212
2 -434 1 -495 -4z m3928 -76 c-7 -2 -19 -2 -25 0 -7 3 -2 5 12 5 14 0 19 -2
13 -5z m102 -43 c3 -5 1 -10 -4 -10 -6 0 -11 5 -11 10 0 6 2 10 4 10 3 0 8 -4
11 -10z m2468 -17 c-7 -2 -21 -2 -30 0 -10 3 -4 5 12 5 17 0 24 -2 18 -5z
m-3380 -10 c4 -3 2 -12 -4 -20 -9 -10 -5 -13 22 -13 26 0 30 -3 19 -10 -23
-15 -63 -12 -89 7 -19 13 -27 14 -43 4 -18 -11 -18 -10 -8 9 9 17 18 20 36 16
14 -4 24 -2 24 4 0 11 33 14 43 3z m42 -3 c3 -5 1 -10 -4 -10 -6 0 -11 5 -11
10 0 6 2 10 4 10 3 0 8 -4 11 -10z m95 1 c0 -14 -18 -23 -30 -16 -6 4 -8 11
-5 16 8 12 35 12 35 0z m2683 -12 c82 -2 107 -9 71 -23 -9 -3 -32 -6 -51 -6
-22 0 -41 -7 -49 -17 -13 -17 -13 -17 -14 0 0 9 -5 17 -12 17 -6 0 -8 -3 -5
-7 13 -12 -46 -33 -95 -33 -42 0 -49 2 -39 14 18 22 2 26 -108 27 -78 1 -101
4 -101 15 0 11 31 14 143 16 78 2 149 2 158 1 8 -2 55 -4 102 -4z m2600 -39
c3 -11 1 -18 -4 -14 -5 3 -9 12 -9 20 0 20 7 17 13 -6z m161 -5 c3 -8 1 -15
-4 -15 -6 0 -10 7 -10 15 0 8 2 15 4 15 2 0 6 -7 10 -15z m-6321 -12 c-7 -2
-19 -2 -25 0 -7 3 -2 5 12 5 14 0 19 -2 13 -5z m1734 1 c-3 -3 -12 -4 -19 -1
-8 3 -5 6 6 6 11 1 17 -2 13 -5z m71 -1 c-10 -2 -26 -2 -35 0 -10 3 -2 5 17 5
19 0 27 -2 18 -5z m105 0 c-7 -2 -19 -2 -25 0 -7 3 -2 5 12 5 14 0 19 -2 13
-5z m1430 0 c-7 -2 -19 -2 -25 0 -7 3 -2 5 12 5 14 0 19 -2 13 -5z m2924 1
c-3 -3 -12 -4 -19 -1 -8 3 -5 6 6 6 11 1 17 -2 13 -5z m-5714 -11 c-7 -2 -19
-2 -25 0 -7 3 -2 5 12 5 14 0 19 -2 13 -5z m614 1 c-3 -3 -12 -4 -19 -1 -8 3
-5 6 6 6 11 1 17 -2 13 -5z m5503 -4 c0 -5 -2 -10 -4 -10 -3 0 -8 5 -11 10 -3
6 -1 10 4 10 6 0 11 -4 11 -10z m-3471 -16 c2 -2 -12 -4 -32 -4 -20 0 -37 4
-37 10 0 8 58 3 69 -6z m1276 6 c-4 -6 5 -10 20 -10 14 0 24 -3 22 -7 -3 -5
-31 -6 -62 -4 -37 2 -53 6 -44 11 8 6 -11 10 -51 13 -55 3 -50 3 28 5 60 1 91
-2 87 -8z m-1078 -6 c-3 -3 -12 -4 -19 -1 -8 3 -5 6 6 6 11 1 17 -2 13 -5z
m1563 -10 c0 -8 -5 -12 -10 -9 -6 4 -8 11 -5 16 9 14 15 11 15 -7z m443 9 c-7
-2 -21 -2 -30 0 -10 3 -4 5 12 5 17 0 24 -2 18 -5z m-4920 -10 c-7 -2 -21 -2
-30 0 -10 3 -4 5 12 5 17 0 24 -2 18 -5z"/>
<path d="M4445 170 c3 -5 13 -10 21 -10 8 0 14 5 14 10 0 6 -9 10 -21 10 -11
0 -17 -4 -14 -10z"/>
<path d="M4808 153 c7 -3 16 -2 19 1 4 3 -2 6 -13 5 -11 0 -14 -3 -6 -6z"/>
<path d="M4850 150 c0 -5 5 -10 10 -10 6 0 10 5 10 10 0 6 -4 10 -10 10 -5 0
-10 -4 -10 -10z"/>
<path d="M4230 141 c0 -5 5 -13 10 -16 6 -3 10 -2 10 4 0 5 -4 13 -10 16 -5 3
-10 2 -10 -4z"/>
<path d="M5265 107 l-20 -24 50 -2 c27 -1 109 -5 180 -9 72 -4 164 -4 205 -1
47 3 59 6 33 7 -44 2 -61 21 -20 23 45 3 -90 15 -158 15 -54 -1 -69 -4 -67
-15 2 -9 -3 -11 -13 -7 -9 3 -26 6 -36 6 -11 0 -17 5 -14 10 3 6 2 10 -4 10
-5 0 -11 -6 -14 -12 -3 -9 -10 -7 -22 7 -9 11 -13 14 -9 6 11 -22 -18 -32 -34
-10 -17 25 -32 24 -57 -4z"/>
<path d="M5786 95 c4 -8 16 -15 28 -15 21 1 21 1 2 15 -25 19 -37 19 -30 0z"/>
<path d="M5098 73 c7 -3 16 -2 19 1 4 3 -2 6 -13 5 -11 0 -14 -3 -6 -6z"/>
<path d="M4198 53 c17 -2 47 -2 65 0 17 2 3 4 -33 4 -36 0 -50 -2 -32 -4z"/>
<path d="M5098 53 c6 -2 18 -2 25 0 6 3 1 5 -13 5 -14 0 -19 -2 -12 -5z"/>
<path d="M5408 43 c7 -3 16 -2 19 1 4 3 -2 6 -13 5 -11 0 -14 -3 -6 -6z"/>
<path d="M5461 46 c2 -2 22 -6 44 -9 27 -4 35 -3 25 3 -14 9 -79 15 -69 6z"/>
<path d="M5585 40 c-4 -6 3 -10 14 -10 25 0 27 6 6 13 -8 4 -17 2 -20 -3z"/>
<path d="M4888 23 c7 -3 16 -2 19 1 4 3 -2 6 -13 5 -11 0 -14 -3 -6 -6z"/>
</g>
</svg>
